<?xml version="1.0" encoding="UTF-8"?>
<svg id="Capa_1" data-name="Capa 1" xmlns="http://www.w3.org/2000/svg" viewBox="0 0 925.34 486">
  <g>
    <rect x="231.58" y="154.69" width="35.42" height="17.49" fill="#1d1d1b"/>
    <rect x="231.58" y="207.59" width="35.42" height="17.49" fill="#1d1d1b"/>
    <rect x="213.77" y="172.18" width="17.82" height="35.41" fill="#1d1d1b"/>
    <rect x="267" y="172.18" width="17.82" height="35.41" fill="#1d1d1b"/>
    <rect x="195.95" y="207.59" width="17.82" height="35.41" fill="#1d1d1b"/>
    <rect x="284.82" y="207.59" width="17.82" height="35.41" fill="#1d1d1b"/>
  </g>
  <g>
    <rect x="338.27" y="313.82" width="35.42" height="17.49" transform="translate(711.96 645.12) rotate(-180)" fill="#1d1d1b"/>
    <rect x="338.27" y="260.92" width="35.42" height="17.49" transform="translate(711.96 539.33) rotate(-180)" fill="#1d1d1b"/>
    <rect x="373.69" y="278.41" width="17.82" height="35.41" transform="translate(765.2 592.23) rotate(-180)" fill="#1d1d1b"/>
    <rect x="320.45" y="278.41" width="17.82" height="35.41" transform="translate(658.73 592.23) rotate(-180)" fill="#1d1d1b"/>
    <rect x="391.51" y="243" width="17.82" height="35.41" transform="translate(800.83 521.41) rotate(-180)" fill="#1d1d1b"/>
    <rect x="302.64" y="243" width="17.82" height="35.41" transform="translate(623.09 521.41) rotate(-180)" fill="#1d1d1b"/>
  </g>
  <g>
    <rect x="444.96" y="154.69" width="35.42" height="17.49" fill="#1d1d1b"/>
    <rect x="444.96" y="207.59" width="35.42" height="17.49" fill="#1d1d1b"/>
    <rect x="427.14" y="172.18" width="17.82" height="35.41" fill="#1d1d1b"/>
    <rect x="480.38" y="172.18" width="17.82" height="35.41" fill="#1d1d1b"/>
    <rect x="409.33" y="207.59" width="17.82" height="35.41" fill="#1d1d1b"/>
    <rect x="498.2" y="207.59" width="17.82" height="35.41" fill="#1d1d1b"/>
  </g>
  <g>
    <rect x="658.34" y="154.69" width="35.42" height="17.49" fill="#1d1d1b"/>
    <rect x="658.34" y="207.59" width="35.42" height="17.49" fill="#1d1d1b"/>
    <rect x="640.52" y="172.18" width="17.82" height="35.41" fill="#1d1d1b"/>
    <rect x="693.76" y="172.18" width="17.82" height="35.41" fill="#1d1d1b"/>
    <rect x="622.7" y="207.59" width="17.82" height="35.41" fill="#1d1d1b"/>
    <rect x="711.57" y="207.59" width="17.82" height="35.41" fill="#1d1d1b"/>
  </g>
  <g>
    <rect x="551.65" y="313.82" width="35.42" height="17.49" transform="translate(1138.72 645.13) rotate(-180)" fill="#1d1d1b"/>
    <rect x="551.65" y="260.92" width="35.42" height="17.49" transform="translate(1138.72 539.33) rotate(-180)" fill="#1d1d1b"/>
    <rect x="587.07" y="278.41" width="17.82" height="35.41" transform="translate(1191.95 592.23) rotate(-180)" fill="#1d1d1b"/>
    <rect x="533.83" y="278.41" width="17.82" height="35.41" transform="translate(1085.48 592.23) rotate(-180)" fill="#1d1d1b"/>
    <rect x="604.88" y="243" width="17.82" height="35.41" transform="translate(1227.59 521.41) rotate(-180)" fill="#1d1d1b"/>
    <rect x="516.01" y="243" width="17.82" height="35.41" transform="translate(1049.84 521.41) rotate(-180)" fill="#1d1d1b"/>
  </g>
</svg>